<svg width="23" height="23" viewBox="0 0 23 23" fill="none" xmlns="http://www.w3.org/2000/svg">
<circle cx="11.5" cy="11.5" r="11.5" fill="#BFDBFE"/>
<path fill-rule="evenodd" clip-rule="evenodd" d="M11.191 17.8001H11.8566L13.4691 16.1876H15.7191L16.1879 15.7188V13.4501L17.8191 11.8376V11.172L16.216 9.55947V7.27197L15.7473 6.8126H13.4691L11.8566 5.20947H11.191L9.62539 6.8126H7.30977L6.81289 7.28135V9.55947L5.22852 11.172V11.8376L6.81289 13.4501V15.7188L7.30977 16.1876H9.62539L11.191 17.8001ZM9.77539 15.2501H7.75039V13.2532L7.63789 12.9251L6.22227 11.5001L7.60977 10.0845L7.75039 9.75635V7.7501H9.77539L10.1129 7.61885L11.5004 6.20322L12.9441 7.61885L13.2723 7.7501H15.2504V9.75635L15.4098 10.0845L16.8348 11.5001L15.3816 12.9251L15.2504 13.2532V15.2501H13.2723L12.916 15.3907L11.5004 16.8063L10.1129 15.3813L9.77539 15.2501ZM10.3098 13.8251H10.9754L14.5098 10.2907L13.8441 9.6251L10.6473 12.8313L9.35352 11.5376L8.68789 12.2032L10.3098 13.8251Z" fill="#60A5FA"/>
</svg>
