<svg width="23" height="23" viewBox="0 0 23 23" fill="none" xmlns="http://www.w3.org/2000/svg">
<circle cx="11.5" cy="11.5" r="11.5" fill="#C7D2FE"/>
<path fill-rule="evenodd" clip-rule="evenodd" d="M9.0625 9.68746V8.06246C9.06164 7.48682 9.26454 6.92945 9.63525 6.48908C10.006 6.0487 10.5206 5.75373 11.0879 5.65641C11.6553 5.5591 12.2388 5.66571 12.735 5.95738C13.2313 6.24905 13.6084 6.70694 13.7994 7.24996H14.6476C14.448 6.48581 13.977 5.82045 13.3227 5.37812C12.6684 4.93579 11.8755 4.74672 11.0919 4.84623C10.3084 4.94574 9.58793 5.32701 9.06496 5.91886C8.54199 6.5107 8.2523 7.27266 8.25 8.06246V9.68746H7.4375L6.625 10.5V15.375L7.4375 16.1875H15.5625L16.375 15.375V10.5L15.5625 9.68746H9.0625ZM13.9375 10.5H15.5625V15.375H7.4375V10.5H13.9375Z" fill="#818CF8"/>
</svg>
