<svg width="59" height="60" viewBox="0 0 59 60" fill="none" xmlns="http://www.w3.org/2000/svg">
<path opacity="0.21" fill-rule="evenodd" clip-rule="evenodd" d="M0.240234 30V37C0.240234 49.7025 10.5377 60 23.2402 60H29.4402H35.6402C48.3428 60 58.6402 49.7025 58.6402 37V30V23C58.6402 10.2975 48.3428 0 35.6402 0H29.4402H23.2402C10.5377 0 0.240234 10.2975 0.240234 23V30Z" fill="#FDE047"/>
<path opacity="0.587821" fill-rule="evenodd" clip-rule="evenodd" d="M20.3564 23.3333C20.3564 26.2789 22.6806 28.6667 25.5476 28.6667C28.4145 28.6667 30.7387 26.2789 30.7387 23.3333C30.7387 20.3878 28.4145 18 25.5476 18C22.6806 18 20.3564 20.3878 20.3564 23.3333ZM33.3341 28.6667C33.3341 30.8759 35.0772 32.6667 37.2274 32.6667C39.3776 32.6667 41.1207 30.8759 41.1207 28.6667C41.1207 26.4576 39.3776 24.6667 37.2274 24.6667C35.0772 24.6667 33.3341 26.4576 33.3341 28.6667Z" fill="#FBBF24"/>
<path fill-rule="evenodd" clip-rule="evenodd" d="M25.5256 31.334C19.3982 31.334 14.3711 34.5693 13.868 40.9329C13.8406 41.2796 14.4859 42.0007 14.8113 42.0007H36.2496C37.2245 42.0007 37.2396 41.1946 37.2245 40.934C36.8442 34.3916 31.7392 31.334 25.5256 31.334ZM39.3035 42.0005V42.0006H44.3078C45.0119 42.0006 45.0229 41.3961 45.0119 41.2006C44.7403 36.3475 41.1305 34.0511 36.7096 34.0015C38.3384 36.2297 39.3035 38.9993 39.3035 42.0005Z" fill="#FBBF24"/>
</svg>
