<svg width="233" height="186" viewBox="0 0 233 186" fill="none" xmlns="http://www.w3.org/2000/svg">
<path fill-rule="evenodd" clip-rule="evenodd" d="M185.578 11.4775L115.026 1.88101C107.721 0.887461 100.994 6.00349 100.001 13.308L80.8117 154.384C79.8182 161.689 84.9342 168.416 92.2387 169.409L196.576 183.601C203.881 184.595 210.608 179.479 211.601 172.174L226.195 64.8832L185.578 11.4775Z" fill="#D9D9D9"/>
<path fill-rule="evenodd" clip-rule="evenodd" d="M185.579 11.4776L185.564 11.4756L181.167 43.8056C180.063 51.9217 185.747 59.396 193.864 60.4999L226.194 64.8974L226.196 64.8826L185.579 11.4776Z" fill="#1C1C1C" fill-opacity="0.2"/>
<rect x="117.578" y="38.1494" width="54.8739" height="2.96616" rx="1.48308" transform="rotate(7.74578 117.578 38.1494)" fill="#1C1C1C" fill-opacity="0.4"/>
<rect x="108.781" y="102.811" width="54.8739" height="2.96616" rx="1.48308" transform="rotate(7.74578 108.781 102.811)" fill="#1C1C1C" fill-opacity="0.4"/>
<rect x="115.379" y="54.3145" width="91.9509" height="2.96616" rx="1.48308" transform="rotate(7.74578 115.379 54.3145)" fill="#1C1C1C" fill-opacity="0.4"/>
<rect x="113.181" y="70.4795" width="91.9509" height="2.96616" rx="1.48308" transform="rotate(7.74578 113.181 70.4795)" fill="#1C1C1C" fill-opacity="0.4"/>
<rect x="110.979" y="86.6445" width="91.9509" height="2.96616" rx="1.48308" transform="rotate(7.74578 110.979 86.6445)" fill="#1C1C1C" fill-opacity="0.4"/>
<path d="M182.819 124.046C183.399 123.718 184.127 123.817 184.599 124.288L187.771 127.461C188.046 127.736 188.418 127.892 188.807 127.895L193.293 127.933C193.959 127.939 194.54 128.389 194.713 129.033L195.874 133.366C195.974 133.742 196.219 134.063 196.554 134.26L200.42 136.536C200.994 136.875 201.272 137.554 201.1 138.198L199.938 142.532C199.838 142.907 199.889 143.308 200.08 143.646L202.29 147.55C202.619 148.13 202.52 148.858 202.048 149.33L198.876 152.502C198.601 152.777 198.445 153.149 198.441 153.538L198.403 158.024C198.397 158.69 197.948 159.271 197.304 159.444L192.97 160.605C192.595 160.705 192.274 160.95 192.076 161.285L189.8 165.151C189.462 165.725 188.782 166.003 188.138 165.831L183.805 164.669C183.429 164.569 183.029 164.62 182.69 164.811L178.786 167.021C178.206 167.35 177.478 167.251 177.007 166.779L173.835 163.607C173.56 163.332 173.188 163.176 172.799 163.172L168.313 163.134C167.646 163.128 167.065 162.679 166.893 162.035L165.732 157.701C165.631 157.326 165.387 157.005 165.052 156.807L161.186 154.531C160.611 154.193 160.333 153.513 160.506 152.869L161.667 148.536C161.768 148.16 161.717 147.76 161.525 147.421L159.315 143.517C158.987 142.937 159.086 142.209 159.557 141.738L162.73 138.566C163.005 138.291 163.161 137.919 163.164 137.53L163.202 133.044C163.208 132.377 163.658 131.796 164.302 131.624L168.635 130.463C169.011 130.362 169.332 130.118 169.529 129.783L171.805 125.917C172.144 125.342 172.823 125.064 173.467 125.237L177.801 126.398C178.176 126.499 178.577 126.448 178.915 126.256L182.819 124.046Z" fill="#888888"/>
<path d="M192.529 140.021L175.787 152.149L169.926 144.804" stroke="#E4E4E4" stroke-width="2.96616" stroke-linecap="round" stroke-linejoin="round"/>
<path fill-rule="evenodd" clip-rule="evenodd" d="M84.5378 9.26119L13.6914 16.3589C6.35636 17.0937 1.00587 23.6357 1.74073 30.9707L15.9335 172.637C16.6683 179.972 23.2102 185.323 30.5453 184.588L135.319 174.091C142.654 173.356 148.005 166.814 147.27 159.479L136.476 51.7405L84.5378 9.26119Z" fill="#EEEEEE"/>
<path fill-rule="evenodd" clip-rule="evenodd" d="M84.5377 9.26127L84.5234 9.2627L87.7759 41.7279C88.5924 49.8779 95.8612 55.8229 104.011 55.0064L136.476 51.7539L136.475 51.7396L84.5377 9.26127Z" fill="#1C1C1C" fill-opacity="0.2"/>
<rect x="24.6172" y="51.0361" width="54.8739" height="2.96616" rx="1.48308" transform="rotate(-5.72104 24.6172 51.0361)" fill="#1C1C1C" fill-opacity="0.4"/>
<rect x="31.123" y="115.967" width="54.8739" height="2.96616" rx="1.48308" transform="rotate(-5.72104 31.123 115.967)" fill="#1C1C1C" fill-opacity="0.4"/>
<rect x="26.2441" y="67.2686" width="91.9509" height="2.96616" rx="1.48308" transform="rotate(-5.72104 26.2441 67.2686)" fill="#1C1C1C" fill-opacity="0.4"/>
<rect x="27.8701" y="83.502" width="91.9509" height="2.96616" rx="1.48308" transform="rotate(-5.72104 27.8701 83.502)" fill="#1C1C1C" fill-opacity="0.4"/>
<rect x="29.4971" y="99.7334" width="91.9509" height="2.96616" rx="1.48308" transform="rotate(-5.72104 29.4971 99.7334)" fill="#1C1C1C" fill-opacity="0.4"/>
<path d="M108.07 119.378C108.558 118.923 109.288 118.85 109.857 119.199L113.68 121.545C114.012 121.749 114.41 121.814 114.789 121.726L119.161 120.719C119.81 120.569 120.48 120.871 120.798 121.457L122.936 125.401C123.121 125.743 123.433 125.998 123.805 126.112L128.095 127.426C128.732 127.621 129.161 128.217 129.143 128.883L129.023 133.368C129.013 133.757 129.156 134.134 129.421 134.419L132.479 137.701C132.934 138.189 133.007 138.92 132.658 139.488L130.312 143.311C130.108 143.643 130.043 144.041 130.13 144.42L131.138 148.792C131.288 149.441 130.986 150.111 130.4 150.429L126.456 152.567C126.114 152.752 125.858 153.065 125.744 153.437L124.431 157.726C124.236 158.364 123.64 158.793 122.973 158.775L118.489 158.654C118.1 158.644 117.722 158.787 117.438 159.052L114.156 162.11C113.668 162.565 112.937 162.638 112.369 162.289L108.545 159.943C108.214 159.739 107.816 159.674 107.436 159.762L103.065 160.769C102.415 160.919 101.746 160.617 101.428 160.031L99.2898 156.087C99.1044 155.745 98.7921 155.489 98.4201 155.376L94.1304 154.062C93.493 153.867 93.0641 153.271 93.082 152.604L93.2023 148.12C93.2127 147.731 93.07 147.354 92.8048 147.069L89.7464 143.787C89.292 143.299 89.2188 142.568 89.5674 142L91.9139 138.176C92.1174 137.845 92.1824 137.447 92.0951 137.068L91.0875 132.696C90.9378 132.046 91.2398 131.377 91.8259 131.059L95.7698 128.921C96.1118 128.736 96.3672 128.423 96.4811 128.051L97.7943 123.762C97.9895 123.124 98.5859 122.695 99.2522 122.713L103.737 122.833C104.126 122.844 104.503 122.701 104.788 122.436L108.07 119.378Z" fill="#888888"/>
<path d="M118.528 132.922L103.847 150.043" stroke="#E4E4E4" stroke-width="2.96616" stroke-linecap="round" stroke-linejoin="round"/>
<path d="M102.295 134.548L120.08 148.416" stroke="#E4E4E4" stroke-width="2.96616" stroke-linecap="round" stroke-linejoin="round"/>
</svg>
