<svg width="23" height="23" viewBox="0 0 23 23" fill="none" xmlns="http://www.w3.org/2000/svg">
<circle cx="11.5" cy="11.5" r="11.5" fill="#F8F0F0"/>
<path d="M19 7.41221V16.1053C19 16.6703 18.5425 17.1278 17.9775 17.1278H15.5906V11.3328L11.5 14.4016L7.40938 11.3328V17.1285H5.0225C4.88817 17.1285 4.75516 17.102 4.63106 17.0506C4.50697 16.9991 4.39422 16.9238 4.29926 16.8288C4.20431 16.7337 4.129 16.6209 4.07765 16.4968C4.02631 16.3727 3.99992 16.2397 4 16.1053V7.41221C4 6.14783 5.44313 5.42596 6.45438 6.18471L7.40938 6.90158L11.5 9.96908L15.5906 6.90033L16.5456 6.18471C17.5562 5.42658 19 6.14783 19 7.41221Z" fill="#FF0000"/>
</svg>
