<svg width="23" height="23" viewBox="0 0 23 23" fill="none" xmlns="http://www.w3.org/2000/svg">
<circle cx="11.5" cy="11.5" r="11.5" fill="#E6E7FF"/>
<path d="M16.8906 9.08062C16.6615 9.08062 16.4479 9.03792 16.25 8.9525C16.0521 8.86708 15.8787 8.74979 15.73 8.60063C15.5808 8.45187 15.4635 8.27854 15.3781 8.08062C15.2927 7.88312 15.25 7.66958 15.25 7.44C15.25 7.215 15.2927 7.0025 15.3781 6.8025C15.4635 6.6025 15.5808 6.42812 15.73 6.27937C15.8787 6.13021 16.0521 6.01292 16.25 5.9275C16.4475 5.84208 16.661 5.79938 16.8906 5.79938C17.1156 5.79938 17.3281 5.84208 17.5281 5.9275C17.7281 6.01292 17.9025 6.13021 18.0513 6.27937C18.2004 6.42812 18.3177 6.6025 18.4031 6.8025C18.4885 7.0025 18.5312 7.215 18.5312 7.44C18.5312 7.66917 18.4885 7.88271 18.4031 8.08062C18.3177 8.27854 18.2004 8.45187 18.0513 8.60063C17.9025 8.74979 17.7281 8.86708 17.5281 8.9525C17.3281 9.03792 17.1156 9.08062 16.8906 9.08062ZM16.8906 6.73687C16.6952 6.73687 16.5292 6.80521 16.3925 6.94187C16.2558 7.07854 16.1875 7.24458 16.1875 7.44C16.1875 7.63542 16.2558 7.80146 16.3925 7.93812C16.5292 8.07479 16.6952 8.14312 16.8906 8.14312C17.086 8.14312 17.2521 8.07479 17.3888 7.93812C17.5254 7.80146 17.5938 7.63542 17.5938 7.44C17.5938 7.24458 17.5254 7.07854 17.3888 6.94187C17.2521 6.80521 17.086 6.73687 16.8906 6.73687ZM19 10.2525V13.7387C19 14.0612 18.939 14.3654 18.8169 14.6513C18.6948 14.9367 18.5275 15.1854 18.315 15.3975C18.1025 15.61 17.8535 15.7773 17.5681 15.8994C17.2823 16.0215 16.9783 16.0825 16.6562 16.0825C16.4708 16.0825 16.2817 16.0606 16.0887 16.0169C15.8958 15.9727 15.7188 15.9042 15.5575 15.8113C15.4354 16.2071 15.2573 16.5673 15.0231 16.8919C14.7885 17.2169 14.5138 17.4952 14.1988 17.7269C13.8838 17.959 13.5358 18.1383 13.155 18.265C12.7742 18.3921 12.3787 18.4556 11.9688 18.4556C11.4904 18.4556 11.04 18.3727 10.6175 18.2069C10.195 18.0406 9.81896 17.811 9.48938 17.5181C9.16021 17.2252 8.88688 16.8785 8.66937 16.4781C8.45188 16.0777 8.31146 15.6431 8.24813 15.1744H4.62312C4.45188 15.1744 4.30521 15.1133 4.18313 14.9913C4.06104 14.8692 4 14.7227 4 14.5519V8.29688C4 8.12604 4.06104 7.97958 4.18313 7.8575C4.30521 7.73542 4.45167 7.67437 4.6225 7.67437H9.99125C9.84958 7.37646 9.77875 7.06396 9.77875 6.73687C9.77875 6.43396 9.83604 6.14958 9.95062 5.88375C10.0656 5.6175 10.2219 5.38542 10.4194 5.1875C10.6173 4.99 10.8494 4.83375 11.1156 4.71875C11.3815 4.60417 11.6658 4.54688 11.9688 4.54688C12.2717 4.54688 12.556 4.60417 12.8219 4.71875C13.0881 4.83375 13.3202 4.99 13.5181 5.1875C13.7156 5.38542 13.8719 5.6175 13.9869 5.88375C14.1015 6.14958 14.1587 6.43396 14.1587 6.73687C14.1587 7.03979 14.1015 7.32417 13.9869 7.59C13.8719 7.85625 13.7156 8.08812 13.5181 8.28562C13.3202 8.48354 13.0881 8.63979 12.8219 8.75437C12.556 8.86937 12.2717 8.92688 11.9688 8.92688C11.8904 8.92688 11.8123 8.92188 11.7344 8.91187C11.656 8.90229 11.5779 8.89021 11.5 8.87562V9.54937H18.2969C18.4923 9.54937 18.6583 9.61771 18.795 9.75437C18.9317 9.89104 19 10.0571 19 10.2525ZM11.9688 5.48437C11.7979 5.48437 11.6354 5.51729 11.4813 5.58312C11.3279 5.64896 11.195 5.73937 11.0825 5.85438C10.97 5.96896 10.8808 6.10208 10.815 6.25375C10.7492 6.405 10.7163 6.56604 10.7163 6.73687C10.7163 6.90771 10.7492 7.07021 10.815 7.22438C10.8813 7.37771 10.9704 7.51062 11.0825 7.62313C11.195 7.73563 11.3281 7.82479 11.4819 7.89062C11.6356 7.95646 11.7979 7.98937 11.9688 7.98937C12.1396 7.98937 12.3006 7.95646 12.4519 7.89062C12.6035 7.82437 12.7369 7.73521 12.8519 7.62313C12.966 7.51062 13.0562 7.3775 13.1225 7.22375C13.1883 7.07 13.2212 6.90771 13.2212 6.73687C13.2212 6.56604 13.1883 6.405 13.1225 6.25375C13.0562 6.10208 12.9658 5.96875 12.8512 5.85375C12.7367 5.73917 12.6035 5.64896 12.4519 5.58312C12.3006 5.51729 12.1396 5.48437 11.9688 5.48437ZM8.33562 10.135H9.74188V8.96375H5.75875V10.1356H7.165V13.8856H8.33687L8.33562 10.135ZM14.7812 14.7056V10.4869H11.5V14.5519C11.5 14.7227 11.439 14.8692 11.3169 14.9913C11.1948 15.1133 11.0483 15.1744 10.8775 15.1744H9.19312C9.25646 15.5115 9.37229 15.824 9.54062 16.1119C9.70937 16.3998 9.91458 16.6477 10.1562 16.8556C10.3979 17.0627 10.6725 17.225 10.98 17.3425C11.2875 17.4596 11.6171 17.5181 11.9688 17.5181C12.3546 17.5181 12.7183 17.4448 13.06 17.2981C13.4017 17.1519 13.7008 16.9506 13.9575 16.6944C14.2137 16.4377 14.415 16.1398 14.5613 15.8006C14.7079 15.461 14.7812 15.096 14.7812 14.7056ZM18.0625 13.7387V10.4869H15.7188V14.7713C15.8458 14.8983 15.9898 14.9925 16.1506 15.0538C16.3119 15.1146 16.4804 15.145 16.6562 15.145C16.8517 15.145 17.0348 15.1083 17.2056 15.035C17.3765 14.9621 17.5254 14.8621 17.6525 14.735C17.7792 14.6079 17.8792 14.459 17.9525 14.2881C18.0258 14.1173 18.0625 13.9342 18.0625 13.7387Z" fill="#6E36E6"/>
</svg>
