<svg width="23" height="23" viewBox="0 0 23 23" fill="none" xmlns="http://www.w3.org/2000/svg">
<circle cx="11.5" cy="11.5" r="11.5" fill="#FBCFE8"/>
<path d="M18 11.4935C18 7.90875 15.088 5 11.5 5C7.912 5 5 7.90875 5 11.4935C5 13.4679 5.897 15.2472 7.301 16.4416C7.314 16.4546 7.327 16.4546 7.327 16.4676C7.444 16.5586 7.561 16.6496 7.691 16.7406C7.756 16.7796 7.808 16.8308 7.873 16.8828C8.94718 17.6111 10.2152 18.0003 11.513 18C12.8108 18.0003 14.0788 17.6111 15.153 16.8828C15.218 16.8438 15.27 16.7926 15.335 16.7528C15.452 16.6626 15.582 16.5716 15.699 16.4806C15.712 16.4676 15.725 16.4676 15.725 16.4546C17.103 15.2464 18 13.4679 18 11.4935ZM11.5 17.1818C10.278 17.1818 9.16 16.7918 8.237 16.1426C8.25 16.0386 8.276 15.9354 8.302 15.8314C8.37946 15.5496 8.49307 15.2789 8.64 15.0262C8.783 14.7793 8.952 14.5583 9.16 14.3632C9.355 14.1683 9.589 13.9871 9.823 13.8441C10.07 13.7011 10.33 13.5971 10.616 13.5191C10.9042 13.4414 11.2015 13.4023 11.5 13.4029C12.3862 13.3966 13.2397 13.7365 13.879 14.3503C14.178 14.6493 14.412 15.0003 14.581 15.4024C14.672 15.6364 14.737 15.8834 14.776 16.1426C13.8166 16.8171 12.6728 17.18 11.5 17.1818ZM9.511 11.1693C9.39646 10.9071 9.33885 10.6235 9.342 10.3373C9.342 10.0521 9.394 9.76613 9.511 9.50612C9.628 9.24613 9.784 9.01294 9.979 8.81794C10.174 8.62294 10.408 8.46775 10.668 8.35075C10.928 8.23375 11.214 8.18175 11.5 8.18175C11.799 8.18175 12.072 8.23375 12.332 8.35075C12.592 8.46775 12.826 8.62375 13.021 8.81794C13.216 9.01294 13.372 9.24694 13.489 9.50612C13.606 9.76613 13.658 10.0521 13.658 10.3373C13.658 10.6363 13.606 10.9093 13.489 11.1685C13.3761 11.4247 13.2175 11.6581 13.021 11.8575C12.8216 12.0537 12.5881 12.212 12.332 12.3247C11.7948 12.5455 11.1922 12.5455 10.655 12.3247C10.3989 12.212 10.1654 12.0537 9.966 11.8575C9.76922 11.661 9.61443 11.4274 9.511 11.1693ZM15.543 15.4804C15.543 15.4544 15.53 15.4414 15.53 15.4154C15.4021 15.0087 15.2137 14.6236 14.971 14.2731C14.7281 13.9199 14.4295 13.6085 14.087 13.3509C13.8254 13.1541 13.5418 12.9883 13.242 12.8569C13.3784 12.7669 13.5048 12.6626 13.619 12.5457C13.8128 12.3543 13.983 12.1405 14.126 11.9087C14.4139 11.4357 14.5626 10.891 14.555 10.3373C14.559 9.92742 14.4794 9.52101 14.321 9.14294C14.1646 8.77864 13.9395 8.44789 13.658 8.16875C13.3769 7.89253 13.0461 7.67198 12.683 7.51875C12.3043 7.36063 11.8974 7.28129 11.487 7.28556C11.0766 7.28155 10.6696 7.36117 10.291 7.51956C9.92477 7.67246 9.59315 7.89769 9.316 8.18175C9.03978 8.46254 8.81923 8.79309 8.666 9.15594C8.5076 9.53401 8.42798 9.94042 8.432 10.3503C8.432 10.6363 8.471 10.9093 8.549 11.1685C8.627 11.4415 8.731 11.6885 8.874 11.9217C9.004 12.1557 9.186 12.3637 9.381 12.5587C9.498 12.6757 9.628 12.7789 9.771 12.8699C9.47024 13.0048 9.18658 13.175 8.926 13.3769C8.588 13.6369 8.289 13.9481 8.042 14.2861C7.79684 14.6351 7.60819 15.0207 7.483 15.4284C7.47 15.4544 7.47 15.4804 7.47 15.4934C6.443 14.4543 5.806 13.0519 5.806 11.4935C5.806 8.36375 8.367 5.80519 11.5 5.80519C14.633 5.80519 17.194 8.36375 17.194 11.4935C17.1923 12.9885 16.5987 14.4219 15.543 15.4804Z" fill="#F87171"/>
</svg>
