<svg width="23" height="23" viewBox="0 0 23 23" fill="none" xmlns="http://www.w3.org/2000/svg">
<circle cx="11.5" cy="11.5" r="11.5" fill="#F0FDF4"/>
<path d="M15.25 9H16.5C16.6658 9 16.8247 9.06585 16.9419 9.18306C17.0592 9.30027 17.125 9.45924 17.125 9.625V17.125C17.125 17.2908 17.0592 17.4497 16.9419 17.5669C16.8247 17.6842 16.6658 17.75 16.5 17.75H6.5C6.33424 17.75 6.17527 17.6842 6.05806 17.5669C5.94085 17.4497 5.875 17.2908 5.875 17.125V9.625C5.875 9.45924 5.94085 9.30027 6.05806 9.18306C6.17527 9.06585 6.33424 9 6.5 9H7.75V8.375C7.75 7.38044 8.14509 6.42661 8.84835 5.72335C9.55161 5.02009 10.5054 4.625 11.5 4.625C12.4946 4.625 13.4484 5.02009 14.1517 5.72335C14.8549 6.42661 15.25 7.38044 15.25 8.375V9ZM7.125 10.25V16.5H15.875V10.25H7.125ZM10.875 12.75H12.125V14H10.875V12.75ZM8.375 12.75H9.625V14H8.375V12.75ZM13.375 12.75H14.625V14H13.375V12.75ZM14 9V8.375C14 7.71196 13.7366 7.07607 13.2678 6.60723C12.7989 6.13839 12.163 5.875 11.5 5.875C10.837 5.875 10.2011 6.13839 9.73223 6.60723C9.26339 7.07607 9 7.71196 9 8.375V9H14Z" fill="#22C55E"/>
</svg>
