<svg width="23" height="23" viewBox="0 0 23 23" fill="none" xmlns="http://www.w3.org/2000/svg">
<circle cx="11.5" cy="11.5" r="11.5" fill="#E3F5FF"/>
<path fill-rule="evenodd" clip-rule="evenodd" d="M5.76714 4.47828C5.93118 4.31449 6.12815 4.18743 6.34501 4.10553C6.56187 4.02362 6.79366 3.98873 7.02502 4.00318C7.25638 4.01763 7.48203 4.08108 7.68701 4.18934C7.89199 4.29759 8.07163 4.44817 8.21402 4.6311L9.89683 6.79297C10.2053 7.18953 10.314 7.7061 10.1921 8.1936L9.67933 10.2467C9.65281 10.3531 9.65425 10.4645 9.68349 10.5701C9.71273 10.6757 9.76878 10.772 9.8462 10.8495L12.1496 13.153C12.2273 13.2306 12.3237 13.2867 12.4295 13.3159C12.5353 13.3452 12.6469 13.3465 12.7534 13.3198L14.8056 12.807C15.0462 12.7469 15.2973 12.7422 15.5399 12.7934C15.7825 12.8445 16.0104 12.9502 16.2062 13.1023L18.3681 14.7842C19.1453 15.3889 19.2165 16.5373 18.5209 17.232L17.5515 18.2014C16.8578 18.8952 15.8209 19.1998 14.8543 18.8595C12.3804 17.9891 10.1343 16.5728 8.28245 14.7158C6.42554 12.8642 5.00927 10.6184 4.1387 8.14485C3.79933 7.17922 4.10402 6.14141 4.79777 5.44766L5.76714 4.47828Z" fill="#1F12BB"/>
</svg>
