<svg width="23" height="23" viewBox="0 0 23 23" fill="none" xmlns="http://www.w3.org/2000/svg">
<circle cx="11.5" cy="11.5" r="11.5" fill="#F0FDF4"/>
<path fill-rule="evenodd" clip-rule="evenodd" d="M16.1503 6.84476C15.5436 6.23775 14.8228 5.75673 14.0294 5.42941C13.236 5.10209 12.3858 4.93492 11.5275 4.93753C7.92578 4.93753 4.99375 7.85491 4.99229 11.4414C4.99069 12.5835 5.29173 13.7055 5.86475 14.6934L4.9375 18.0625L8.40185 17.1581C9.36081 17.6776 10.4343 17.9495 11.5249 17.9492H11.5275C15.129 17.9492 18.0607 15.0315 18.0625 11.4452C18.0647 10.5899 17.8967 9.74274 17.5685 8.95294C17.2402 8.16314 16.7581 7.44652 16.1503 6.84476ZM11.5275 16.8514H11.5252C10.5529 16.8517 9.59837 16.5915 8.76074 16.0979L8.5624 15.9807L6.50664 16.5174L7.05537 14.5226L6.92617 14.3175C6.38253 13.4568 6.09451 12.4594 6.09561 11.4414C6.09561 8.46107 8.5334 6.03616 11.5296 6.03616C12.9669 6.0336 14.3464 6.60204 15.3646 7.61647C16.3828 8.6309 16.9564 10.0082 16.9592 11.4455C16.958 14.4262 14.5214 16.8514 11.5275 16.8514ZM14.5067 12.8029C14.3436 12.7214 13.5399 12.3283 13.3911 12.2741C13.2423 12.2199 13.1324 12.1926 13.0237 12.3555C12.915 12.5184 12.6019 12.8828 12.5066 12.9927C12.4114 13.1026 12.3162 13.1146 12.153 13.0331C11.9898 12.9517 11.4634 12.7803 10.8396 12.2266C10.3542 11.7956 10.0267 11.2636 9.93144 11.101C9.83623 10.9384 9.92119 10.8502 10.0029 10.7694C10.0765 10.6964 10.1661 10.5795 10.2479 10.4846C10.3296 10.3897 10.3568 10.3217 10.411 10.2133C10.4652 10.1049 10.4383 10.01 10.3976 9.92884C10.3568 9.84769 10.0302 9.04759 9.89424 8.7221C9.76152 8.40511 9.62705 8.44818 9.52685 8.44319C9.43164 8.43851 9.32178 8.43734 9.21367 8.43734C9.13103 8.43949 9.04972 8.45865 8.97481 8.49363C8.89991 8.52862 8.83302 8.57867 8.77832 8.64066C8.62861 8.80355 8.20674 9.1973 8.20674 9.99651C8.20674 10.7957 8.79268 11.5692 8.87353 11.6776C8.95439 11.786 10.0249 13.4275 11.6629 14.1315C11.967 14.2617 12.2778 14.376 12.5939 14.4737C12.9851 14.5973 13.341 14.58 13.6223 14.5381C13.936 14.4915 14.5891 14.145 14.7247 13.7653C14.8604 13.3856 14.8606 13.0604 14.8199 12.9927C14.7792 12.925 14.6702 12.884 14.5067 12.8029Z" fill="#037847"/>
</svg>
