<svg width="24" height="24" viewBox="0 0 24 24" fill="none" xmlns="http://www.w3.org/2000/svg">
<circle cx="11.9121" cy="11.7812" r="11.5" fill="#BFDBFE"/>
<path d="M9.28714 14.5312C9.23112 14.5312 9.1751 14.5395 9.12167 14.5568C8.81792 14.6555 8.49847 14.7188 8.16214 14.7188C7.82581 14.7188 7.50636 14.6555 7.20237 14.5568C7.14894 14.5395 7.09316 14.5312 7.03714 14.5312C5.58261 14.5312 4.40441 15.7144 4.41215 17.1708C4.41543 17.7863 4.92144 18.2812 5.53714 18.2812H10.7871C11.4028 18.2812 11.9088 17.7863 11.9121 17.1708C11.9199 15.7144 10.7417 14.5312 9.28714 14.5312ZM8.16214 13.7812C9.40479 13.7812 10.4121 12.7739 10.4121 11.5312C10.4121 10.2886 9.40479 9.28125 8.16214 9.28125C6.91948 9.28125 5.91214 10.2886 5.91214 11.5312C5.91214 12.7739 6.91948 13.7812 8.16214 13.7812ZM18.2871 6.28125H9.28714C8.66675 6.28125 8.16214 6.80273 8.16214 7.44352V8.53125C8.71104 8.53125 9.21917 8.69016 9.66213 8.94844V7.78125H17.9121V14.5312H16.4121V13.0312H13.4121V14.5312H11.6253C12.0729 14.9224 12.4015 15.439 12.5555 16.0312H18.2871C18.9075 16.0312 19.4121 15.5098 19.4121 14.869V7.44352C19.4121 6.80273 18.9075 6.28125 18.2871 6.28125Z" fill="#3B82F6"/>
</svg>
