<svg width="24" height="24" viewBox="0 0 24 24" fill="none" xmlns="http://www.w3.org/2000/svg">
<circle cx="11.9121" cy="11.7812" r="11.5" fill="#C7D2FE"/>
<path d="M11.9118 12.3216C12.2109 12.3216 12.4535 12.0791 12.4535 11.7799C12.4535 11.4808 12.2109 11.2383 11.9118 11.2383C11.6126 11.2383 11.3701 11.4808 11.3701 11.7799C11.3701 12.0791 11.6126 12.3216 11.9118 12.3216Z" stroke="#818CF8" stroke-linecap="round" stroke-linejoin="round"/>
<path d="M15.7038 12.3216C16.0029 12.3216 16.2454 12.0791 16.2454 11.7799C16.2454 11.4808 16.0029 11.2383 15.7038 11.2383C15.4046 11.2383 15.1621 11.4808 15.1621 11.7799C15.1621 12.0791 15.4046 12.3216 15.7038 12.3216Z" stroke="#818CF8" stroke-linecap="round" stroke-linejoin="round"/>
<path d="M8.12077 12.3216C8.41992 12.3216 8.66243 12.0791 8.66243 11.7799C8.66243 11.4808 8.41992 11.2383 8.12077 11.2383C7.82161 11.2383 7.5791 11.4808 7.5791 11.7799C7.5791 12.0791 7.82161 12.3216 8.12077 12.3216Z" stroke="#818CF8" stroke-linecap="round" stroke-linejoin="round"/>
</svg>
