<svg width="24" height="24" viewBox="0 0 24 24" fill="none" xmlns="http://www.w3.org/2000/svg">
<circle cx="11.9121" cy="11.7812" r="11.5" fill="#D9F99D"/>
<path d="M16.9121 5.53125C17.4094 5.53125 17.8863 5.72879 18.2379 6.08042C18.5896 6.43206 18.7871 6.90897 18.7871 7.40625V8.65625H17.5371V16.1562C17.5371 16.6535 17.3396 17.1304 16.9879 17.4821C16.6363 17.8337 16.1594 18.0312 15.6621 18.0312H6.91211C6.41483 18.0312 5.93791 17.8337 5.58628 17.4821C5.23465 17.1304 5.03711 16.6535 5.03711 16.1562V14.9062H15.0371V16.1562C15.0371 16.3093 15.0933 16.4571 15.1951 16.5715C15.2968 16.6859 15.437 16.759 15.589 16.7769L15.6621 16.7812C15.8152 16.7812 15.9629 16.725 16.0773 16.6233C16.1917 16.5216 16.2648 16.3814 16.2827 16.2294L16.2871 16.1562V6.78125H8.16211C8.00903 6.78127 7.86127 6.83747 7.74688 6.9392C7.63248 7.04092 7.5594 7.18109 7.54148 7.33312L7.53711 7.40625V13.6562H6.28711V7.40625C6.28711 6.90897 6.48465 6.43206 6.83628 6.08042C7.18791 5.72879 7.66483 5.53125 8.16211 5.53125H16.9121Z" fill="#84CC16"/>
</svg>
