<svg width="36" height="37" viewBox="0 0 36 37" fill="none" xmlns="http://www.w3.org/2000/svg">
<path d="M7.19192 7.70805L0 0.5V14.9564L7.19192 22.0839V7.70805Z" fill="#25AAE2"/>
<path d="M7.19192 7.70805L0 0.5H28.8485L36 7.70805H7.19192Z" fill="#0F75BD"/>
<path d="M14.4646 14.9161V7.70801H21.6565V22.0838L14.4646 14.9161Z" fill="#283890"/>
<path d="M14.4646 29.2919V22.0839H21.6565V36.4597L14.4646 29.2919Z" fill="#283890"/>
<path d="M28.808 14.9161V7.70801H36V22.0838L28.808 14.9161Z" fill="#283890"/>
<path d="M28.808 29.2919V22.0839H36V36.4597L28.808 29.2919Z" fill="#283890"/>
<path d="M14.4647 14.9161H7.19196V22.0839H21.6566L14.4647 14.9161Z" fill="#262161"/>
<path d="M28.8081 14.9161H21.6566V22.0839H36L28.8081 14.9161Z" fill="#262161"/>
<path d="M28.8081 29.292H21.6566V36.4598H36L28.8081 29.292Z" fill="#262161"/>
<path d="M0 29.3323L14.4646 29.292L21.6566 36.4598L7.19192 36.5L0 29.3323Z" fill="#262161"/>
</svg>
