<svg width="24" height="24" viewBox="0 0 24 24" fill="none" xmlns="http://www.w3.org/2000/svg">
<path fill-rule="evenodd" clip-rule="evenodd" d="M6.75 3.75C6.35218 3.75 5.97064 3.90804 5.68934 4.18934C5.40804 4.47064 5.25 4.85218 5.25 5.25V20.25C5.25 20.6478 5.40804 21.0294 5.68934 21.3107C5.97064 21.592 6.35217 21.75 6.75 21.75H17.25C17.6478 21.75 18.0294 21.592 18.3107 21.3107C18.592 21.0294 18.75 20.6478 18.75 20.25V5.25C18.75 4.85217 18.592 4.47064 18.3107 4.18934C18.0294 3.90804 17.6478 3.75 17.25 3.75H15.75V2.25H17.25C18.0456 2.25 18.8087 2.56607 19.3713 3.12868C19.9339 3.69129 20.25 4.45435 20.25 5.25V20.25C20.25 21.0456 19.9339 21.8087 19.3713 22.3713C18.8087 22.9339 18.0456 23.25 17.25 23.25H6.75C5.95435 23.25 5.19129 22.9339 4.62868 22.3713C4.06607 21.8087 3.75 21.0456 3.75 20.25V5.25C3.75 4.45435 4.06607 3.69129 4.62868 3.12868C5.19129 2.56607 5.95435 2.25 6.75 2.25H8.25V3.75H6.75Z" fill="#334155"/>
<path fill-rule="evenodd" clip-rule="evenodd" d="M9.47484 2.25C9.21259 2.25 9 2.46259 9 2.72484V3.27516C9 3.53741 9.21259 3.75 9.47484 3.75H14.5252C14.7874 3.75 15 3.53741 15 3.27516V2.72484C15 2.46259 14.7874 2.25 14.5252 2.25H9.47484ZM7.5 2.72484C7.5 1.63417 8.38417 0.75 9.47484 0.75H14.5252C15.6158 0.75 16.5 1.63417 16.5 2.72484V3.27516C16.5 4.36583 15.6158 5.25 14.5252 5.25H9.47484C8.38417 5.25 7.5 4.36583 7.5 3.27516V2.72484Z" fill="#334155"/>
</svg>
