<svg width="28" height="29" viewBox="0 0 28 29" fill="none" xmlns="http://www.w3.org/2000/svg">
<path d="M5.59371 6.10626L0 0.5V11.7438L5.59371 17.2875V6.10626Z" fill="#25AAE2"/>
<path d="M5.59371 6.10626L0 0.5H22.4377L28 6.10626H5.59371Z" fill="#0F75BD"/>
<path d="M11.251 11.7125V6.1062H16.8447V17.2874L11.251 11.7125Z" fill="#283890"/>
<path d="M11.251 22.8936V17.2874H16.8447V28.4686L11.251 22.8936Z" fill="#283890"/>
<path d="M22.4058 11.7125V6.1062H27.9995V17.2874L22.4058 11.7125Z" fill="#283890"/>
<path d="M22.4058 22.8936V17.2874H27.9995V28.4686L22.4058 22.8936Z" fill="#283890"/>
<path d="M11.2508 11.7126H5.59424V17.2876H16.8445L11.2508 11.7126Z" fill="#262161"/>
<path d="M22.406 11.7126H16.8438V17.2876H27.9998L22.406 11.7126Z" fill="#262161"/>
<path d="M22.406 22.8938H16.8438V28.4687H27.9998L22.406 22.8938Z" fill="#262161"/>
<path d="M0 22.9251L11.2503 22.8938L16.844 28.4687L5.59371 28.5001L0 22.9251Z" fill="#262161"/>
</svg>
