<svg width="24" height="24" viewBox="0 0 24 24" fill="none" xmlns="http://www.w3.org/2000/svg">
<path fill-rule="evenodd" clip-rule="evenodd" d="M21.75 3H19.5V1.5H18V3H6V1.5H4.5V3H2.25L1.5 3.75V21.75L2.25 22.5H21.75L22.5 21.75V3.75L21.75 3ZM21 21H3V7.5H21V21ZM21 6H3V4.5H21V6ZM6 12H4.5V13.5H6V12ZM4.5 15H6V16.5H4.5V15ZM6 18H4.5V19.5H6V18ZM9 12H10.5V13.5H9V12ZM10.5 15H9V16.5H10.5V15ZM9 18H10.5V19.5H9V18ZM10.5 9H9V10.5H10.5V9ZM13.5 12H15V13.5H13.5V12ZM15 15H13.5V16.5H15V15ZM13.5 18H15V19.5H13.5V18ZM15 9H13.5V10.5H15V9ZM18 12H19.5V13.5H18V12ZM19.5 15H18V16.5H19.5V15ZM18 9H19.5V10.5H18V9Z" fill="#334155"/>
</svg>
