<svg width="24" height="24" viewBox="0 0 24 24" fill="none" xmlns="http://www.w3.org/2000/svg">
<path fill-rule="evenodd" clip-rule="evenodd" d="M3 10.155L21.495 5.01001L22.5 5.80501V18.705L21.495 19.5L12.3615 17.1075C12.2607 17.5266 12.0773 17.9213 11.8221 18.2686C11.5668 18.6159 11.2448 18.9088 10.875 19.1301C10.5051 19.3515 10.0948 19.4968 9.6681 19.5575C9.24139 19.6183 8.80684 19.5933 8.3899 19.484C7.97296 19.3748 7.58202 19.1834 7.23997 18.9211C6.89791 18.6589 6.61162 18.331 6.39786 17.9568C6.18409 17.5825 6.04716 17.1693 5.99507 16.7415C5.94298 16.3136 5.97678 15.8796 6.0945 15.465L3 14.655L2.37 13.86V10.95L3 10.155ZM7.509 15.8355C7.47588 15.954 7.45577 16.0757 7.449 16.1985C7.44825 16.6189 7.59843 17.0256 7.87221 17.3446C8.146 17.6636 8.5252 17.8737 8.94084 17.9368C9.35647 17.9998 9.78093 17.9116 10.137 17.6881C10.4931 17.4646 10.7571 17.1207 10.881 16.719L7.509 15.8355ZM3.86999 13.23L21 17.745V6.75001L3.86999 11.58V13.23Z" fill="#334155"/>
</svg>
