<svg width="24" height="24" viewBox="0 0 24 24" fill="none" xmlns="http://www.w3.org/2000/svg">
<path fill-rule="evenodd" clip-rule="evenodd" d="M15 9H20.85C20.2534 6.06131 17.9387 3.74655 15 3.15003V9ZM15 1.62444C18.7688 2.25672 21.7432 5.23125 22.3755 9C22.4574 9.48781 22.5 9.98893 22.5 10.5H13.5V1.5C14.0111 1.5 14.5122 1.5426 15 1.62444ZM10.5 12L12 13.5H19.35C18.655 16.9234 15.6284 19.5 12 19.5C7.85787 19.5 4.5 16.1421 4.5 12C4.5 8.37156 7.07664 5.34493 10.5 4.65003V12ZM12 21C16.4595 21 20.1614 17.7565 20.8755 13.5C20.9574 13.0122 21 12.5111 21 12H12V3C11.4889 3 10.9878 3.0426 10.5 3.12444C6.24344 3.83856 3 7.5405 3 12C3 16.9705 7.02944 21 12 21Z" fill="#334155"/>
</svg>
