<svg width="23" height="23" viewBox="0 0 23 23" fill="none" xmlns="http://www.w3.org/2000/svg">
<circle cx="11.5" cy="11.5" r="11.5" fill="#BFDBFE"/>
<path d="M8.87503 14.25C8.81901 14.25 8.76299 14.2582 8.70956 14.2755C8.40581 14.3742 8.08636 14.4375 7.75003 14.4375C7.4137 14.4375 7.09425 14.3742 6.79027 14.2755C6.73683 14.2582 6.68105 14.25 6.62503 14.25C5.1705 14.25 3.9923 15.4331 4.00004 16.8895C4.00332 17.505 4.50933 18 5.12504 18H10.375C10.9907 18 11.4967 17.505 11.5 16.8895C11.5078 15.4331 10.3296 14.25 8.87503 14.25ZM7.75003 13.5C8.99268 13.5 10 12.4927 10 11.25C10 10.0073 8.99268 9 7.75003 9C6.50738 9 5.50003 10.0073 5.50003 11.25C5.50003 12.4927 6.50738 13.5 7.75003 13.5ZM17.875 6H8.87503C8.25464 6 7.75003 6.52148 7.75003 7.16227V8.25C8.29893 8.25 8.80706 8.40891 9.25002 8.66719V7.5H17.5V14.25H16V12.75H13V14.25H11.2131C11.6608 14.6412 11.9894 15.1577 12.1434 15.75H17.875C18.4954 15.75 19 15.2285 19 14.5877V7.16227C19 6.52148 18.4954 6 17.875 6Z" fill="#3B82F6"/>
</svg>
